<?xml version="1.0" encoding="utf-8"?>
<!-- Generator: Adobe Illustrator 21.0.2, SVG Export Plug-In . SVG Version: 6.00 Build 0)  -->
<svg version="1.1" id="Layer_1" xmlns="http://www.w3.org/2000/svg" xmlns:xlink="http://www.w3.org/1999/xlink" x="0px" y="0px"
	 viewBox="0 0 578.3 96.4" style="enable-background:new 0 0 578.3 96.4;" xml:space="preserve">
<style type="text/css">
	.st0{fill:#ffffff;}
</style>
<g>
	<g>
		<path class="st0" d="M199.8,28.9c-2.2-2.4-4.9-4.2-7.9-5.5c-3-1.3-6.2-2-9.6-2c-3.9,0-7.2,0.9-9.9,2.6c-2.7,1.7-4.9,3.8-6.6,6.1
			h-0.2v-22h-4.2c-4.1,0.1-7.5,3.4-7.7,7.5v57.2h8.1c1.6-0.1,2.9-1.4,2.9-3v-5.4h0.2c0.9,1.3,1.9,2.6,3.1,3.8
			c1.1,1.2,2.4,2.3,3.9,3.2c1.4,0.9,3.1,1.6,4.8,2.1c1.8,0.5,3.7,0.8,5.7,0.8c3.4,0,6.6-0.7,9.6-2c3-1.3,5.6-3.2,7.9-5.6
			c2.2-2.4,4-5.2,5.3-8.4c1.3-3.2,2-6.7,2-10.5c0-3.8-0.7-7.3-2-10.5C203.8,34,202,31.3,199.8,28.9z M193.4,53.5
			c-0.7,1.8-1.8,3.4-3.1,4.7c-1.3,1.3-2.8,2.4-4.6,3.2c-1.8,0.8-3.7,1.2-5.7,1.2c-2,0-3.9-0.4-5.6-1.2c-1.8-0.8-3.3-1.8-4.6-3.2
			c-1.3-1.3-2.3-2.9-3.1-4.7c-0.8-1.8-1.2-3.7-1.2-5.7c0-2,0.4-3.9,1.2-5.7c0.8-1.8,1.8-3.3,3.1-4.7c1.3-1.3,2.8-2.4,4.6-3.2
			c1.8-0.8,3.6-1.2,5.6-1.2c2,0,3.9,0.4,5.7,1.2c1.8,0.8,3.3,1.8,4.6,3.2c1.3,1.3,2.3,2.9,3.1,4.7c0.7,1.8,1.1,3.7,1.1,5.7
			C194.5,49.8,194.1,51.7,193.4,53.5z"/>
		<path class="st0" d="M326.8,46.3h29V34.5h-29V19.9h34.6v-9.4c-0.3-1.3-1.4-2.4-2.8-2.5h-42.2v0c-0.8,0-1.6,0.6-1.7,1.4v55.8
			c0.2,3.9,3.2,7.1,7.1,7.5h39.8V61.1h-34.8V46.3z"/>
		<path class="st0" d="M497.5,69.1v-61h-4.2c-4.2,0.1-7.5,3.4-7.7,7.6v57.2h8.1C495.8,72.7,497.4,71.1,497.5,69.1z"/>
		<path class="st0" d="M286.9,69.1v-61h-4.2c-4.2,0.1-7.5,3.4-7.7,7.6v57.2h8.1C285.1,72.7,286.8,71.1,286.9,69.1z"/>
		<path class="st0" d="M86.4,69.1v-61h-4.2c-4.2,0.1-7.5,3.4-7.7,7.6v57.2h8.1C84.6,72.7,86.2,71.1,86.4,69.1z"/>
		<path class="st0" d="M59.7,34.5H39.2v9c0.2,1.5,1.4,2.7,2.9,2.8h11.7v11.2c-1.9,1.6-4.1,2.8-6.4,3.7c-2.3,0.9-4.8,1.3-7.5,1.3
			c-3,0-5.8-0.6-8.4-1.7c-2.6-1.2-4.9-2.7-6.9-4.7c-2-2-3.5-4.3-4.7-7c-1.1-2.7-1.7-5.6-1.7-8.6c0-3,0.6-5.9,1.7-8.6
			c1.1-2.7,2.7-5,4.7-7c2-2,4.3-3.6,6.9-4.7c2.6-1.2,5.4-1.7,8.4-1.7c3.1,0,5.9,0.6,8.5,1.7c1.8,0.8,3.5,1.8,5,3l0,0
			c1.7,1.2,2.9,0.6,4.2-0.5l6-6c-3.1-3.1-6.6-5.6-10.7-7.3c-4.1-1.8-8.4-2.7-13-2.7c-4.7,0-9.2,0.9-13.3,2.6
			c-4.2,1.7-7.8,4.1-10.9,7.1c-3.1,3-5.5,6.6-7.3,10.7c-1.8,4.1-2.7,8.6-2.7,13.4c0,4.8,0.9,9.2,2.7,13.4c1.8,4.1,4.2,7.7,7.3,10.7
			c3.1,3,6.7,5.4,10.9,7.1c4.2,1.7,8.6,2.6,13.3,2.6c5.1,0,9.9-1.1,14.2-3.2c4.4-2.1,8.1-5,11.2-8.6V39.9C65,37,62.6,34.7,59.7,34.5
			z"/>
		<path class="st0" d="M472.1,22.8c-3.3,0.1-6,2.8-6.1,6.1v0.3h-0.2c-0.9-1-1.8-2-2.9-2.9c-1.1-0.9-2.2-1.8-3.5-2.5
			c-1.3-0.7-2.8-1.3-4.3-1.8s-3.3-0.6-5.2-0.6c-3.4,0-6.6,0.6-9.6,1.9c-3,1.3-5.6,3-7.9,5.3c-2.2,2.3-4,5-5.3,8
			c-1.3,3.1-2,6.4-2,10.1c0,3.6,0.7,7,2,10.1c1.3,3.1,3.1,5.8,5.3,8.1c2.2,2.3,4.9,4.1,7.9,5.4c3,1.3,6.2,1.9,9.6,1.9
			c1.7,0,3.3-0.2,4.8-0.7c1.5-0.5,2.9-1,4.2-1.8c1.3-0.7,2.4-1.5,3.5-2.5c1-0.9,2-1.8,2.8-2.8l0.2,0.2l0,0.7
			c-0.2,1.9-0.8,3.7-1.8,5.3c-1,1.6-2.2,3.1-3.6,4.2c-1.4,1.2-3,2.1-4.8,2.8c-1.7,0.7-3.5,1-5.2,1c-2.7,0-5.4-0.5-7.9-1.4
			c-1.6-0.6-3.1-1.3-4.5-2.1c-1.4-0.8-3.1-0.3-4,1l-4.3,7.4c3.1,1.9,6.2,3.6,9.7,4.7c3.5,1.1,7.1,1.6,10.9,1.6
			c3.7,0,7.3-0.7,10.5-2.2c3.3-1.4,6.1-3.4,8.6-5.8c2.5-2.4,4.4-5.3,5.8-8.6c1.4-3.3,2.1-6.8,2.1-10.6v-0.7V47.6V22.8H472.1z
			 M464.1,52.5c-0.7,1.7-1.7,3.2-2.9,4.4c-1.3,1.3-2.7,2.3-4.4,3c-1.7,0.7-3.5,1.1-5.4,1.1c-1.9,0-3.6-0.4-5.3-1.1
			c-1.7-0.7-3.1-1.8-4.4-3c-1.2-1.3-2.2-2.7-2.9-4.4c-0.7-1.7-1.1-3.5-1.1-5.4c0-1.9,0.4-3.7,1.1-5.4c0.7-1.7,1.7-3.2,2.9-4.4
			c1.2-1.3,2.7-2.3,4.4-3c1.7-0.7,3.4-1.1,5.3-1.1c1.9,0,3.7,0.4,5.4,1.1c1.7,0.7,3.1,1.8,4.4,3c1.2,1.3,2.2,2.7,2.9,4.4
			c0.7,1.7,1.1,3.5,1.1,5.4C465.2,49,464.8,50.8,464.1,52.5z"/>
	</g>
	<g>
		<path class="st0" d="M542.9,59.5L542.9,59.5c-0.9,0.8-1.9,1.4-3.1,2c-2.5,1.2-5.2,1.9-8,1.9c-3.1,0-5.8-0.9-8.3-2.7
			c-2.4-1.8-4.2-4.2-5.2-7.3h38.3c0.3-0.1,0.9-0.3,1.2-1.2c0.1-0.6,0.2-1.1,0.3-1.6c0.1-0.9,0.2-1.8,0.2-2.8c0-3.7-0.7-7.1-2.1-10.4
			c-1.4-3.2-3.3-6-5.7-8.4c-2.4-2.4-5.2-4.2-8.4-5.6c-3.2-1.4-6.6-2.1-10.3-2.1c-3.7,0-7.2,0.7-10.4,2c-3.3,1.3-6.1,3.2-8.6,5.5
			c-2.4,2.4-4.4,5.2-5.8,8.4c-1.4,3.2-2.1,6.7-2.1,10.5c0,3.8,0.7,7.3,2.1,10.5c1.4,3.2,3.4,6,5.8,8.4c2.4,2.4,5.3,4.2,8.6,5.6
			c3.3,1.4,6.7,2,10.4,2c4.8,0,9.2-1.1,13.2-3.2c3.6-1.9,6.5-4.4,8.8-7.5l-7.3-4.9C545.6,58,544.2,58.4,542.9,59.5z M523.6,35.5
			c2.4-1.8,5.2-2.7,8.3-2.7c3.1,0,5.9,0.9,8.3,2.7c2.4,1.8,4.2,4.2,5.2,7.2h-27C519.5,39.7,521.2,37.3,523.6,35.5z"/>
	</g>
	<path class="st0" d="M418.1,69.9v-47h-5.4c-3.2,0.1-5.8,2.6-6.1,5.8v1.5h-0.2c-0.9-1.2-1.8-2.3-2.9-3.3c-1.1-1.1-2.3-2-3.7-2.8
		c-1.4-0.8-2.9-1.4-4.5-1.9c-1.6-0.5-3.4-0.7-5.4-0.7c-3.4,0-6.6,0.7-9.6,2c-3,1.3-5.6,3.2-7.9,5.5c-2.2,2.4-4,5.1-5.3,8.4
		c-1.3,3.2-2,6.7-2,10.5c0,3.8,0.7,7.3,2,10.5c1.3,3.2,3.1,6,5.3,8.4c2.2,2.4,4.9,4.2,7.9,5.6c3,1.3,6.2,2,9.6,2
		c1.9,0,3.7-0.2,5.4-0.7c1.6-0.5,3.2-1.1,4.5-1.9c1.4-0.8,2.6-1.7,3.7-2.8c1.1-1.1,2.1-2.2,2.9-3.3h0.2v7.3h8.6
		C416.8,72.8,418.1,71.5,418.1,69.9z M405.5,53.5c-0.7,1.8-1.8,3.4-3.1,4.7c-1.3,1.3-2.8,2.4-4.6,3.1c-1.8,0.8-3.7,1.2-5.7,1.2
		c-2,0-3.9-0.4-5.6-1.2c-1.8-0.8-3.3-1.8-4.6-3.1c-1.3-1.3-2.3-2.9-3.1-4.7c-0.8-1.8-1.1-3.7-1.1-5.7c0-2,0.4-3.9,1.1-5.7
		c0.8-1.8,1.8-3.3,3.1-4.7c1.3-1.3,2.8-2.4,4.6-3.1c1.8-0.8,3.6-1.2,5.6-1.2c2,0,3.9,0.4,5.7,1.2c1.8,0.8,3.3,1.8,4.6,3.1
		c1.3,1.3,2.3,2.9,3.1,4.7c0.7,1.8,1.1,3.7,1.1,5.7C406.6,49.8,406.3,51.7,405.5,53.5z"/>
	<path class="st0" d="M265.7,69.9v-47h-5.4c-3.2,0.1-5.8,2.6-6.1,5.8v1.5H254c-0.9-1.2-1.8-2.3-2.9-3.3c-1.1-1.1-2.3-2-3.7-2.8
		c-1.4-0.8-2.9-1.4-4.5-1.9c-1.6-0.5-3.4-0.7-5.4-0.7c-3.4,0-6.6,0.7-9.6,2c-3,1.3-5.6,3.2-7.9,5.5c-2.2,2.4-4,5.1-5.3,8.4
		c-1.3,3.2-2,6.7-2,10.5c0,3.8,0.7,7.3,2,10.5c1.3,3.2,3.1,6,5.3,8.4c2.2,2.4,4.9,4.2,7.9,5.6c3,1.3,6.2,2,9.6,2
		c1.9,0,3.7-0.2,5.4-0.7c1.6-0.5,3.2-1.1,4.5-1.9c1.4-0.8,2.6-1.7,3.7-2.8c1.1-1.1,2.1-2.2,2.9-3.3h0.2v7.3h8.6
		C264.4,72.8,265.6,71.5,265.7,69.9z M253.1,53.5c-0.7,1.8-1.8,3.4-3.1,4.7c-1.3,1.3-2.8,2.4-4.6,3.1c-1.8,0.8-3.7,1.2-5.7,1.2
		c-2,0-3.9-0.4-5.6-1.2c-1.8-0.8-3.3-1.8-4.6-3.1c-1.3-1.3-2.3-2.9-3.1-4.7c-0.8-1.8-1.1-3.7-1.1-5.7c0-2,0.4-3.9,1.1-5.7
		c0.8-1.8,1.8-3.3,3.1-4.7c1.3-1.3,2.8-2.4,4.6-3.1c1.8-0.8,3.6-1.2,5.6-1.2c2,0,3.9,0.4,5.7,1.2c1.8,0.8,3.3,1.8,4.6,3.1
		c1.3,1.3,2.3,2.9,3.1,4.7c0.7,1.8,1.1,3.7,1.1,5.7C254.2,49.8,253.8,51.7,253.1,53.5z"/>
	<path class="st0" d="M140,30.1c-4.9-5.6-12.2-9.1-20.2-9.1c-14.9,0-27,12.1-27,27c0,1.1,0.1,2.1,0.2,3.2c10.3-12.3,25.7-20.4,43-21
		C137.4,30,138.7,30.1,140,30.1z"/>
	<path class="st0" d="M104.8,70.3c4.3,2.9,9.5,4.6,15.1,4.6c14.9,0,27-12.1,27-27c0-5.3-1.5-10.3-4.2-14.4
		C124.8,39.1,110.8,52.9,104.8,70.3z"/>
	<path class="st0" d="M560.2,23.3V30h-1.7v-6.7h-2.4v-1.4h6.4v1.4H560.2z"/>
	<polygon class="st0" points="571.1,30 571.1,24.2 568.8,29.1 567.7,29.1 565.3,24.2 565.3,30 563.8,30 563.8,21.8 565.7,21.8 
		568.2,27 570.7,21.8 572.6,21.8 572.6,30 	"/>
</g>
</svg>
